<svg xmlns="http://www.w3.org/2000/svg" width="32" height="32">
    <path style="color:#000;fill:#000;stroke:none;overflow:visible" d="M6.188 1033.675 5 1033.83l-3.594 5.125.657.906 2.343-.406c1.369 5.122 6.04 8.906 11.594 8.906 5.554 0 10.225-3.784 11.594-8.906l2.375.406.687-.906-3.593-5.125-1.188-.156-5.063 3.562.313 1.063 2.5.437c-1.013 3.257-4.035 5.625-7.625 5.625s-6.612-2.368-7.625-5.625l2.563-.437.312-1.063-5.063-3.562z" transform="translate(0 -1020.362)"/>
    <path style="color:#000;fill:#000;stroke:none;overflow:visible" d="M20 14a3 3 0 1 1-6 0 3 3 0 1 1 6 0z" transform="matrix(1.33333 0 0 1.33333 -6.667 -6.667)"/>
</svg>
