<?xml version="1.0" encoding="UTF-8" standalone="no"?>
<!-- Created with Inkscape (http://www.inkscape.org/) -->

<svg
   xmlns:dc="http://purl.org/dc/elements/1.1/"
   xmlns:cc="http://creativecommons.org/ns#"
   xmlns:rdf="http://www.w3.org/1999/02/22-rdf-syntax-ns#"
   xmlns:svg="http://www.w3.org/2000/svg"
   xmlns="http://www.w3.org/2000/svg"
   xmlns:sodipodi="http://sodipodi.sourceforge.net/DTD/sodipodi-0.dtd"
   xmlns:inkscape="http://www.inkscape.org/namespaces/inkscape"
   width="32"
   height="32"
   id="svg2"
   version="1.1"
   inkscape:version="0.48.5 r10040"
   sodipodi:docname="mod-r.svg">
  <defs
     id="defs4" />
  <sodipodi:namedview
     id="base"
     pagecolor="#ffffff"
     bordercolor="#666666"
     borderopacity="1.0"
     inkscape:pageopacity="0.0"
     inkscape:pageshadow="2"
     inkscape:zoom="15.839192"
     inkscape:cx="16.161253"
     inkscape:cy="12.077283"
     inkscape:document-units="px"
     inkscape:current-layer="layer1"
     showgrid="true"
     showguides="false"
     inkscape:snap-global="true"
     objecttolerance="50"
     gridtolerance="10000"
     inkscape:snap-to-guides="true"
     inkscape:window-width="1131"
     inkscape:window-height="896"
     inkscape:window-x="70"
     inkscape:window-y="223"
     inkscape:window-maximized="0"
     inkscape:snap-bbox="true">
    <inkscape:grid
       type="xygrid"
       id="grid2985"
       empspacing="4"
       dotted="true"
       visible="true"
       enabled="true"
       snapvisiblegridlinesonly="true" />
  </sodipodi:namedview>
  <metadata
     id="metadata7">
    <rdf:RDF>
      <cc:Work
         rdf:about="">
        <dc:format>image/svg+xml</dc:format>
        <dc:type
           rdf:resource="http://purl.org/dc/dcmitype/StillImage" />
        <dc:title />
      </cc:Work>
    </rdf:RDF>
  </metadata>
  <g
     inkscape:label="Layer 1"
     inkscape:groupmode="layer"
     id="layer1"
     transform="translate(0,-1020.3622)">
    <path
       style="color:#000000;fill:#000000;stroke:none;overflow:visible"
       d="M 6.1875,1033.6747 5,1033.831 l -3.59375,5.125 0.65625,0.9062 2.34375,-0.4062 c 1.368323,5.1222 6.040146,8.9062 11.59375,8.9062 5.553604,0 10.225427,-3.784 11.59375,-8.9062 l 2.375,0.4062 0.6875,-0.9062 -3.59375,-5.125 -1.1875,-0.1563 -5.0625,3.5625 0.3125,1.0625 2.5,0.4375 c -1.012892,3.2565 -4.035149,5.625 -7.625,5.625 -3.589851,0 -6.6121082,-2.3685 -7.625,-5.625 l 2.5625,-0.4375 0.3125,-1.0625 -5.0625,-3.5625 z"
       id="path3208"
       inkscape:connector-curvature="0" />
    <path
       sodipodi:type="arc"
       style="color:#000000;fill:#000000;stroke:none;overflow:visible"
       id="path3286"
       sodipodi:cx="17"
       sodipodi:cy="14"
       sodipodi:rx="3"
       sodipodi:ry="3"
       d="m 20,14 a 3,3 0 1 1 -6,0 3,3 0 1 1 6,0 z"
       transform="matrix(1.3333333,0,0,1.3333333,-6.6666667,1013.6955)" />
  </g>
</svg>
